<mxfile host="app.diagrams.net" agent="Mozilla/5.0 (Windows NT 10.0; Win64; x64) AppleWebKit/537.36 (KHTML, like Gecko) Chrome/127.0.0.0 Safari/537.36" version="24.7.7">
  <diagram name="Page-1" id="rWKGwOTZG9frbGqumi_M">
    <mxGraphModel grid="1" page="1" gridSize="10" guides="1" tooltips="1" connect="1" arrows="1" fold="1" pageScale="1" pageWidth="827" pageHeight="1169" math="0" shadow="0">
      <root>
        <mxCell id="0" />
        <mxCell id="1" parent="0" />
        <mxCell id="FLbDrOzy0SRXT8C7Cxbx-1" value="Book" style="swimlane;fontStyle=1;childLayout=stackLayout;horizontal=1;startSize=30;horizontalStack=0;resizeParent=1;resizeParentMax=0;resizeLast=0;collapsible=1;marginBottom=0;whiteSpace=wrap;html=1;strokeWidth=2;" vertex="1" parent="1">
          <mxGeometry x="20" y="-1080" width="140" height="240" as="geometry" />
        </mxCell>
        <mxCell id="FLbDrOzy0SRXT8C7Cxbx-2" value="isbn" style="text;strokeColor=none;fillColor=none;align=left;verticalAlign=middle;spacingLeft=4;spacingRight=4;overflow=hidden;points=[[0,0.5],[1,0.5]];portConstraint=eastwest;rotatable=0;whiteSpace=wrap;html=1;fontStyle=1" vertex="1" parent="FLbDrOzy0SRXT8C7Cxbx-1">
          <mxGeometry y="30" width="140" height="30" as="geometry" />
        </mxCell>
        <mxCell id="FLbDrOzy0SRXT8C7Cxbx-3" value="title" style="text;strokeColor=none;fillColor=none;align=left;verticalAlign=middle;spacingLeft=4;spacingRight=4;overflow=hidden;points=[[0,0.5],[1,0.5]];portConstraint=eastwest;rotatable=0;whiteSpace=wrap;html=1;fontStyle=1" vertex="1" parent="FLbDrOzy0SRXT8C7Cxbx-1">
          <mxGeometry y="60" width="140" height="30" as="geometry" />
        </mxCell>
        <mxCell id="FLbDrOzy0SRXT8C7Cxbx-4" value="genre" style="text;strokeColor=none;fillColor=none;align=left;verticalAlign=middle;spacingLeft=4;spacingRight=4;overflow=hidden;points=[[0,0.5],[1,0.5]];portConstraint=eastwest;rotatable=0;whiteSpace=wrap;html=1;fontStyle=1" vertex="1" parent="FLbDrOzy0SRXT8C7Cxbx-1">
          <mxGeometry y="90" width="140" height="30" as="geometry" />
        </mxCell>
        <mxCell id="FLbDrOzy0SRXT8C7Cxbx-5" value="category" style="text;strokeColor=none;fillColor=none;align=left;verticalAlign=middle;spacingLeft=4;spacingRight=4;overflow=hidden;points=[[0,0.5],[1,0.5]];portConstraint=eastwest;rotatable=0;whiteSpace=wrap;html=1;fontStyle=1" vertex="1" parent="FLbDrOzy0SRXT8C7Cxbx-1">
          <mxGeometry y="120" width="140" height="30" as="geometry" />
        </mxCell>
        <mxCell id="FLbDrOzy0SRXT8C7Cxbx-6" value="author" style="text;strokeColor=none;fillColor=none;align=left;verticalAlign=middle;spacingLeft=4;spacingRight=4;overflow=hidden;points=[[0,0.5],[1,0.5]];portConstraint=eastwest;rotatable=0;whiteSpace=wrap;html=1;fontStyle=1" vertex="1" parent="FLbDrOzy0SRXT8C7Cxbx-1">
          <mxGeometry y="150" width="140" height="30" as="geometry" />
        </mxCell>
        <mxCell id="FLbDrOzy0SRXT8C7Cxbx-7" value="publisher" style="text;strokeColor=none;fillColor=none;align=left;verticalAlign=middle;spacingLeft=4;spacingRight=4;overflow=hidden;points=[[0,0.5],[1,0.5]];portConstraint=eastwest;rotatable=0;whiteSpace=wrap;html=1;fontStyle=1" vertex="1" parent="FLbDrOzy0SRXT8C7Cxbx-1">
          <mxGeometry y="180" width="140" height="30" as="geometry" />
        </mxCell>
        <mxCell id="FLbDrOzy0SRXT8C7Cxbx-8" value="year_of_publication" style="text;strokeColor=none;fillColor=none;align=left;verticalAlign=middle;spacingLeft=4;spacingRight=4;overflow=hidden;points=[[0,0.5],[1,0.5]];portConstraint=eastwest;rotatable=0;whiteSpace=wrap;html=1;fontStyle=1" vertex="1" parent="FLbDrOzy0SRXT8C7Cxbx-1">
          <mxGeometry y="210" width="140" height="30" as="geometry" />
        </mxCell>
        <mxCell id="FLbDrOzy0SRXT8C7Cxbx-9" value="Stationary" style="swimlane;fontStyle=1;childLayout=stackLayout;horizontal=1;startSize=30;horizontalStack=0;resizeParent=1;resizeParentMax=0;resizeLast=0;collapsible=1;marginBottom=0;whiteSpace=wrap;html=1;strokeWidth=2;fontSize=13;" vertex="1" parent="1">
          <mxGeometry x="210" y="-1000" width="140" height="90" as="geometry" />
        </mxCell>
        <mxCell id="FLbDrOzy0SRXT8C7Cxbx-10" value="stationary_type" style="text;strokeColor=none;fillColor=none;align=left;verticalAlign=middle;spacingLeft=4;spacingRight=4;overflow=hidden;points=[[0,0.5],[1,0.5]];portConstraint=eastwest;rotatable=0;whiteSpace=wrap;html=1;fontStyle=1" vertex="1" parent="FLbDrOzy0SRXT8C7Cxbx-9">
          <mxGeometry y="30" width="140" height="30" as="geometry" />
        </mxCell>
        <mxCell id="FLbDrOzy0SRXT8C7Cxbx-11" value="brand" style="text;strokeColor=none;fillColor=none;align=left;verticalAlign=middle;spacingLeft=4;spacingRight=4;overflow=hidden;points=[[0,0.5],[1,0.5]];portConstraint=eastwest;rotatable=0;whiteSpace=wrap;html=1;fontStyle=1" vertex="1" parent="FLbDrOzy0SRXT8C7Cxbx-9">
          <mxGeometry y="60" width="140" height="30" as="geometry" />
        </mxCell>
        <mxCell id="FLbDrOzy0SRXT8C7Cxbx-12" value="Item" style="swimlane;fontStyle=1;childLayout=stackLayout;horizontal=1;startSize=30;horizontalStack=0;resizeParent=1;resizeParentMax=0;resizeLast=0;collapsible=1;marginBottom=0;whiteSpace=wrap;html=1;strokeWidth=2;fontSize=13;" vertex="1" parent="1">
          <mxGeometry x="120" y="-750" width="140" height="120" as="geometry" />
        </mxCell>
        <mxCell id="FLbDrOzy0SRXT8C7Cxbx-13" value="item_code {PK}" style="text;strokeColor=none;fillColor=none;align=left;verticalAlign=middle;spacingLeft=4;spacingRight=4;overflow=hidden;points=[[0,0.5],[1,0.5]];portConstraint=eastwest;rotatable=0;whiteSpace=wrap;html=1;fontStyle=1" vertex="1" parent="FLbDrOzy0SRXT8C7Cxbx-12">
          <mxGeometry y="30" width="140" height="30" as="geometry" />
        </mxCell>
        <mxCell id="FLbDrOzy0SRXT8C7Cxbx-14" value="item_price" style="text;strokeColor=none;fillColor=none;align=left;verticalAlign=middle;spacingLeft=4;spacingRight=4;overflow=hidden;points=[[0,0.5],[1,0.5]];portConstraint=eastwest;rotatable=0;whiteSpace=wrap;html=1;fontStyle=1" vertex="1" parent="FLbDrOzy0SRXT8C7Cxbx-12">
          <mxGeometry y="60" width="140" height="30" as="geometry" />
        </mxCell>
        <mxCell id="FLbDrOzy0SRXT8C7Cxbx-15" value="stock_level" style="text;strokeColor=none;fillColor=none;align=left;verticalAlign=middle;spacingLeft=4;spacingRight=4;overflow=hidden;points=[[0,0.5],[1,0.5]];portConstraint=eastwest;rotatable=0;whiteSpace=wrap;html=1;fontStyle=1" vertex="1" parent="FLbDrOzy0SRXT8C7Cxbx-12">
          <mxGeometry y="90" width="140" height="30" as="geometry" />
        </mxCell>
        <mxCell id="FLbDrOzy0SRXT8C7Cxbx-16" value="" style="endArrow=none;html=1;rounded=0;entryX=0.5;entryY=1.028;entryDx=0;entryDy=0;entryPerimeter=0;strokeWidth=2;" edge="1" parent="1">
          <mxGeometry width="50" height="50" relative="1" as="geometry">
            <mxPoint x="280" y="-820" as="sourcePoint" />
            <mxPoint x="279.69" y="-910" as="targetPoint" />
          </mxGeometry>
        </mxCell>
        <mxCell id="FLbDrOzy0SRXT8C7Cxbx-17" value="" style="endArrow=none;html=1;rounded=0;entryX=0.5;entryY=1.028;entryDx=0;entryDy=0;entryPerimeter=0;strokeWidth=2;" edge="1" parent="1">
          <mxGeometry width="50" height="50" relative="1" as="geometry">
            <mxPoint x="90" y="-820" as="sourcePoint" />
            <mxPoint x="89.69" y="-840" as="targetPoint" />
          </mxGeometry>
        </mxCell>
        <mxCell id="FLbDrOzy0SRXT8C7Cxbx-18" value="" style="endArrow=none;html=1;rounded=0;strokeWidth=2;" edge="1" parent="1">
          <mxGeometry width="50" height="50" relative="1" as="geometry">
            <mxPoint x="90" y="-820" as="sourcePoint" />
            <mxPoint x="280" y="-820" as="targetPoint" />
          </mxGeometry>
        </mxCell>
        <mxCell id="FLbDrOzy0SRXT8C7Cxbx-19" value="" style="endArrow=classic;html=1;rounded=0;entryX=0.491;entryY=-0.005;entryDx=0;entryDy=0;strokeWidth=2;entryPerimeter=0;" edge="1" parent="1">
          <mxGeometry width="50" height="50" relative="1" as="geometry">
            <mxPoint x="190" y="-820" as="sourcePoint" />
            <mxPoint x="189.5" y="-750" as="targetPoint" />
          </mxGeometry>
        </mxCell>
        <mxCell id="FLbDrOzy0SRXT8C7Cxbx-20" value="Supplier" style="swimlane;fontStyle=1;childLayout=stackLayout;horizontal=1;startSize=30;horizontalStack=0;resizeParent=1;resizeParentMax=0;resizeLast=0;collapsible=1;marginBottom=0;whiteSpace=wrap;html=1;strokeWidth=2;fontSize=13;" vertex="1" parent="1">
          <mxGeometry x="590" y="-860" width="140" height="330" as="geometry" />
        </mxCell>
        <mxCell id="FLbDrOzy0SRXT8C7Cxbx-21" value="sup_id {PK}" style="text;strokeColor=none;fillColor=none;align=left;verticalAlign=middle;spacingLeft=4;spacingRight=4;overflow=hidden;points=[[0,0.5],[1,0.5]];portConstraint=eastwest;rotatable=0;whiteSpace=wrap;html=1;fontStyle=1;strokeWidth=2;" vertex="1" parent="FLbDrOzy0SRXT8C7Cxbx-20">
          <mxGeometry y="30" width="140" height="30" as="geometry" />
        </mxCell>
        <mxCell id="FLbDrOzy0SRXT8C7Cxbx-22" value="name&lt;br&gt;&lt;blockquote style=&quot;margin: 0px 0px 0px 40px; border: none; padding: 0px; line-height: 130%;&quot;&gt;&lt;div style=&quot;text-align: center; line-height: 130%;&quot;&gt;&lt;span style=&quot;background-color: initial;&quot;&gt;f_name&lt;/span&gt;&lt;/div&gt;&lt;div style=&quot;text-align: center; line-height: 130%;&quot;&gt;&lt;span style=&quot;background-color: initial;&quot;&gt;l_name&lt;/span&gt;&lt;/div&gt;&lt;/blockquote&gt;" style="text;strokeColor=none;fillColor=none;align=left;verticalAlign=middle;spacingLeft=4;spacingRight=4;overflow=hidden;points=[[0,0.5],[1,0.5]];portConstraint=eastwest;rotatable=0;whiteSpace=wrap;html=1;fontStyle=1;spacing=2;spacingTop=0;spacingBottom=0;" vertex="1" parent="FLbDrOzy0SRXT8C7Cxbx-20">
          <mxGeometry y="60" width="140" height="60" as="geometry" />
        </mxCell>
        <mxCell id="FLbDrOzy0SRXT8C7Cxbx-23" value="contact_no." style="text;strokeColor=none;fillColor=none;align=left;verticalAlign=middle;spacingLeft=4;spacingRight=4;overflow=hidden;points=[[0,0.5],[1,0.5]];portConstraint=eastwest;rotatable=0;whiteSpace=wrap;html=1;fontStyle=1" vertex="1" parent="FLbDrOzy0SRXT8C7Cxbx-20">
          <mxGeometry y="120" width="140" height="30" as="geometry" />
        </mxCell>
        <mxCell id="FLbDrOzy0SRXT8C7Cxbx-24" value="email_address" style="text;strokeColor=none;fillColor=none;align=left;verticalAlign=middle;spacingLeft=4;spacingRight=4;overflow=hidden;points=[[0,0.5],[1,0.5]];portConstraint=eastwest;rotatable=0;whiteSpace=wrap;html=1;fontStyle=1" vertex="1" parent="FLbDrOzy0SRXT8C7Cxbx-20">
          <mxGeometry y="150" width="140" height="30" as="geometry" />
        </mxCell>
        <mxCell id="FLbDrOzy0SRXT8C7Cxbx-25" value="payment_conditions" style="text;strokeColor=none;fillColor=none;align=left;verticalAlign=middle;spacingLeft=4;spacingRight=4;overflow=hidden;points=[[0,0.5],[1,0.5]];portConstraint=eastwest;rotatable=0;whiteSpace=wrap;html=1;fontStyle=1" vertex="1" parent="FLbDrOzy0SRXT8C7Cxbx-20">
          <mxGeometry y="180" width="140" height="30" as="geometry" />
        </mxCell>
        <mxCell id="FLbDrOzy0SRXT8C7Cxbx-26" value="related_industry" style="text;strokeColor=none;fillColor=none;align=left;verticalAlign=middle;spacingLeft=4;spacingRight=4;overflow=hidden;points=[[0,0.5],[1,0.5]];portConstraint=eastwest;rotatable=0;whiteSpace=wrap;html=1;fontStyle=1" vertex="1" parent="FLbDrOzy0SRXT8C7Cxbx-20">
          <mxGeometry y="210" width="140" height="30" as="geometry" />
        </mxCell>
        <mxCell id="FLbDrOzy0SRXT8C7Cxbx-27" value="supply_quantity" style="text;strokeColor=none;fillColor=none;align=left;verticalAlign=middle;spacingLeft=4;spacingRight=4;overflow=hidden;points=[[0,0.5],[1,0.5]];portConstraint=eastwest;rotatable=0;whiteSpace=wrap;html=1;fontStyle=1" vertex="1" parent="FLbDrOzy0SRXT8C7Cxbx-20">
          <mxGeometry y="240" width="140" height="30" as="geometry" />
        </mxCell>
        <mxCell id="FLbDrOzy0SRXT8C7Cxbx-28" value="nic" style="text;strokeColor=none;fillColor=none;align=left;verticalAlign=middle;spacingLeft=4;spacingRight=4;overflow=hidden;points=[[0,0.5],[1,0.5]];portConstraint=eastwest;rotatable=0;whiteSpace=wrap;html=1;fontStyle=1" vertex="1" parent="FLbDrOzy0SRXT8C7Cxbx-20">
          <mxGeometry y="270" width="140" height="30" as="geometry" />
        </mxCell>
        <mxCell id="FLbDrOzy0SRXT8C7Cxbx-29" value="branch" style="text;strokeColor=none;fillColor=none;align=left;verticalAlign=middle;spacingLeft=4;spacingRight=4;overflow=hidden;points=[[0,0.5],[1,0.5]];portConstraint=eastwest;rotatable=0;whiteSpace=wrap;html=1;fontStyle=1" vertex="1" parent="FLbDrOzy0SRXT8C7Cxbx-20">
          <mxGeometry y="300" width="140" height="30" as="geometry" />
        </mxCell>
        <mxCell id="FLbDrOzy0SRXT8C7Cxbx-30" value="" style="endArrow=none;html=1;rounded=0;entryX=0.492;entryY=1.009;entryDx=0;entryDy=0;entryPerimeter=0;strokeWidth=2;exitX=0.5;exitY=0;exitDx=0;exitDy=0;" edge="1" parent="1" source="FLbDrOzy0SRXT8C7Cxbx-20" target="FLbDrOzy0SRXT8C7Cxbx-88">
          <mxGeometry width="50" height="50" relative="1" as="geometry">
            <mxPoint x="599.69" y="-900" as="sourcePoint" />
            <mxPoint x="599.69" y="-930" as="targetPoint" />
          </mxGeometry>
        </mxCell>
        <mxCell id="FLbDrOzy0SRXT8C7Cxbx-31" value="Order" style="swimlane;fontStyle=1;childLayout=stackLayout;horizontal=1;startSize=30;horizontalStack=0;resizeParent=1;resizeParentMax=0;resizeLast=0;collapsible=1;marginBottom=0;whiteSpace=wrap;html=1;strokeWidth=2;fontSize=13;" vertex="1" parent="1">
          <mxGeometry x="60" y="-470" width="140" height="180" as="geometry" />
        </mxCell>
        <mxCell id="FLbDrOzy0SRXT8C7Cxbx-32" value="order_id {PK}" style="text;strokeColor=none;fillColor=none;align=left;verticalAlign=middle;spacingLeft=4;spacingRight=4;overflow=hidden;points=[[0,0.5],[1,0.5]];portConstraint=eastwest;rotatable=0;whiteSpace=wrap;html=1;fontStyle=1" vertex="1" parent="FLbDrOzy0SRXT8C7Cxbx-31">
          <mxGeometry y="30" width="140" height="30" as="geometry" />
        </mxCell>
        <mxCell id="FLbDrOzy0SRXT8C7Cxbx-33" value="quantity" style="text;strokeColor=none;fillColor=none;align=left;verticalAlign=middle;spacingLeft=4;spacingRight=4;overflow=hidden;points=[[0,0.5],[1,0.5]];portConstraint=eastwest;rotatable=0;whiteSpace=wrap;html=1;fontStyle=1" vertex="1" parent="FLbDrOzy0SRXT8C7Cxbx-31">
          <mxGeometry y="60" width="140" height="30" as="geometry" />
        </mxCell>
        <mxCell id="FLbDrOzy0SRXT8C7Cxbx-34" value="order_date" style="text;strokeColor=none;fillColor=none;align=left;verticalAlign=middle;spacingLeft=4;spacingRight=4;overflow=hidden;points=[[0,0.5],[1,0.5]];portConstraint=eastwest;rotatable=0;whiteSpace=wrap;html=1;fontStyle=1" vertex="1" parent="FLbDrOzy0SRXT8C7Cxbx-31">
          <mxGeometry y="90" width="140" height="30" as="geometry" />
        </mxCell>
        <mxCell id="FLbDrOzy0SRXT8C7Cxbx-35" value="delivery_date" style="text;strokeColor=none;fillColor=none;align=left;verticalAlign=middle;spacingLeft=4;spacingRight=4;overflow=hidden;points=[[0,0.5],[1,0.5]];portConstraint=eastwest;rotatable=0;whiteSpace=wrap;html=1;fontStyle=1" vertex="1" parent="FLbDrOzy0SRXT8C7Cxbx-31">
          <mxGeometry y="120" width="140" height="30" as="geometry" />
        </mxCell>
        <mxCell id="FLbDrOzy0SRXT8C7Cxbx-36" value="dest_address" style="text;strokeColor=none;fillColor=none;align=left;verticalAlign=middle;spacingLeft=4;spacingRight=4;overflow=hidden;points=[[0,0.5],[1,0.5]];portConstraint=eastwest;rotatable=0;whiteSpace=wrap;html=1;fontStyle=1" vertex="1" parent="FLbDrOzy0SRXT8C7Cxbx-31">
          <mxGeometry y="150" width="140" height="30" as="geometry" />
        </mxCell>
        <mxCell id="FLbDrOzy0SRXT8C7Cxbx-37" value="Customer" style="swimlane;fontStyle=1;childLayout=stackLayout;horizontal=1;startSize=30;horizontalStack=0;resizeParent=1;resizeParentMax=0;resizeLast=0;collapsible=1;marginBottom=0;whiteSpace=wrap;html=1;strokeWidth=2;fontSize=13;" vertex="1" parent="1">
          <mxGeometry x="610" y="-490" width="150" height="330" as="geometry" />
        </mxCell>
        <mxCell id="FLbDrOzy0SRXT8C7Cxbx-38" value="cust_id {PK}" style="text;strokeColor=none;fillColor=none;align=left;verticalAlign=middle;spacingLeft=4;spacingRight=4;overflow=hidden;points=[[0,0.5],[1,0.5]];portConstraint=eastwest;rotatable=0;whiteSpace=wrap;html=1;fontStyle=1" vertex="1" parent="FLbDrOzy0SRXT8C7Cxbx-37">
          <mxGeometry y="30" width="150" height="30" as="geometry" />
        </mxCell>
        <mxCell id="FLbDrOzy0SRXT8C7Cxbx-39" value="name" style="text;strokeColor=none;fillColor=none;align=left;verticalAlign=middle;spacingLeft=4;spacingRight=4;overflow=hidden;points=[[0,0.5],[1,0.5]];portConstraint=eastwest;rotatable=0;whiteSpace=wrap;html=1;fontStyle=1" vertex="1" parent="FLbDrOzy0SRXT8C7Cxbx-37">
          <mxGeometry y="60" width="150" height="30" as="geometry" />
        </mxCell>
        <mxCell id="FLbDrOzy0SRXT8C7Cxbx-40" value="nic" style="text;strokeColor=none;fillColor=none;align=left;verticalAlign=middle;spacingLeft=4;spacingRight=4;overflow=hidden;points=[[0,0.5],[1,0.5]];portConstraint=eastwest;rotatable=0;whiteSpace=wrap;html=1;fontStyle=1" vertex="1" parent="FLbDrOzy0SRXT8C7Cxbx-37">
          <mxGeometry y="90" width="150" height="30" as="geometry" />
        </mxCell>
        <mxCell id="FLbDrOzy0SRXT8C7Cxbx-41" value="contact_no." style="text;strokeColor=none;fillColor=none;align=left;verticalAlign=middle;spacingLeft=4;spacingRight=4;overflow=hidden;points=[[0,0.5],[1,0.5]];portConstraint=eastwest;rotatable=0;whiteSpace=wrap;html=1;fontStyle=1" vertex="1" parent="FLbDrOzy0SRXT8C7Cxbx-37">
          <mxGeometry y="120" width="150" height="30" as="geometry" />
        </mxCell>
        <mxCell id="FLbDrOzy0SRXT8C7Cxbx-42" value="email_address" style="text;strokeColor=none;fillColor=none;align=left;verticalAlign=middle;spacingLeft=4;spacingRight=4;overflow=hidden;points=[[0,0.5],[1,0.5]];portConstraint=eastwest;rotatable=0;whiteSpace=wrap;html=1;fontStyle=1" vertex="1" parent="FLbDrOzy0SRXT8C7Cxbx-37">
          <mxGeometry y="150" width="150" height="30" as="geometry" />
        </mxCell>
        <mxCell id="FLbDrOzy0SRXT8C7Cxbx-43" value="address&lt;br&gt;&amp;nbsp; &amp;nbsp; &amp;nbsp; &amp;nbsp; &amp;nbsp; &amp;nbsp;address_line_1&lt;br&gt;&amp;nbsp; &amp;nbsp; &amp;nbsp; &amp;nbsp; &amp;nbsp; &amp;nbsp;address_line_2" style="text;strokeColor=none;fillColor=none;align=left;verticalAlign=middle;spacingLeft=4;spacingRight=4;overflow=hidden;points=[[0,0.5],[1,0.5]];portConstraint=eastwest;rotatable=0;whiteSpace=wrap;html=1;fontStyle=1" vertex="1" parent="FLbDrOzy0SRXT8C7Cxbx-37">
          <mxGeometry y="180" width="150" height="60" as="geometry" />
        </mxCell>
        <mxCell id="FLbDrOzy0SRXT8C7Cxbx-44" value="city" style="text;strokeColor=none;fillColor=none;align=left;verticalAlign=middle;spacingLeft=4;spacingRight=4;overflow=hidden;points=[[0,0.5],[1,0.5]];portConstraint=eastwest;rotatable=0;whiteSpace=wrap;html=1;fontStyle=1" vertex="1" parent="FLbDrOzy0SRXT8C7Cxbx-37">
          <mxGeometry y="240" width="150" height="30" as="geometry" />
        </mxCell>
        <mxCell id="FLbDrOzy0SRXT8C7Cxbx-45" value="country" style="text;strokeColor=none;fillColor=none;align=left;verticalAlign=middle;spacingLeft=4;spacingRight=4;overflow=hidden;points=[[0,0.5],[1,0.5]];portConstraint=eastwest;rotatable=0;whiteSpace=wrap;html=1;fontStyle=1" vertex="1" parent="FLbDrOzy0SRXT8C7Cxbx-37">
          <mxGeometry y="270" width="150" height="30" as="geometry" />
        </mxCell>
        <mxCell id="FLbDrOzy0SRXT8C7Cxbx-46" value="postal_code" style="text;strokeColor=none;fillColor=none;align=left;verticalAlign=middle;spacingLeft=4;spacingRight=4;overflow=hidden;points=[[0,0.5],[1,0.5]];portConstraint=eastwest;rotatable=0;whiteSpace=wrap;html=1;fontStyle=1" vertex="1" parent="FLbDrOzy0SRXT8C7Cxbx-37">
          <mxGeometry y="300" width="150" height="30" as="geometry" />
        </mxCell>
        <mxCell id="FLbDrOzy0SRXT8C7Cxbx-47" value="Payment" style="swimlane;fontStyle=1;childLayout=stackLayout;horizontal=1;startSize=30;horizontalStack=0;resizeParent=1;resizeParentMax=0;resizeLast=0;collapsible=1;marginBottom=0;whiteSpace=wrap;html=1;strokeWidth=2;fontSize=13;" vertex="1" parent="1">
          <mxGeometry x="330" y="-400" width="140" height="150" as="geometry" />
        </mxCell>
        <mxCell id="FLbDrOzy0SRXT8C7Cxbx-48" value="pay_id {PK}" style="text;strokeColor=none;fillColor=none;align=left;verticalAlign=middle;spacingLeft=4;spacingRight=4;overflow=hidden;points=[[0,0.5],[1,0.5]];portConstraint=eastwest;rotatable=0;whiteSpace=wrap;html=1;fontStyle=1" vertex="1" parent="FLbDrOzy0SRXT8C7Cxbx-47">
          <mxGeometry y="30" width="140" height="30" as="geometry" />
        </mxCell>
        <mxCell id="FLbDrOzy0SRXT8C7Cxbx-49" value="amount" style="text;strokeColor=none;fillColor=none;align=left;verticalAlign=middle;spacingLeft=4;spacingRight=4;overflow=hidden;points=[[0,0.5],[1,0.5]];portConstraint=eastwest;rotatable=0;whiteSpace=wrap;html=1;fontStyle=1" vertex="1" parent="FLbDrOzy0SRXT8C7Cxbx-47">
          <mxGeometry y="60" width="140" height="30" as="geometry" />
        </mxCell>
        <mxCell id="FLbDrOzy0SRXT8C7Cxbx-50" value="pay_date" style="text;strokeColor=none;fillColor=none;align=left;verticalAlign=middle;spacingLeft=4;spacingRight=4;overflow=hidden;points=[[0,0.5],[1,0.5]];portConstraint=eastwest;rotatable=0;whiteSpace=wrap;html=1;fontStyle=1" vertex="1" parent="FLbDrOzy0SRXT8C7Cxbx-47">
          <mxGeometry y="90" width="140" height="30" as="geometry" />
        </mxCell>
        <mxCell id="FLbDrOzy0SRXT8C7Cxbx-51" value="pay_time" style="text;strokeColor=none;fillColor=none;align=left;verticalAlign=middle;spacingLeft=4;spacingRight=4;overflow=hidden;points=[[0,0.5],[1,0.5]];portConstraint=eastwest;rotatable=0;whiteSpace=wrap;html=1;fontStyle=1" vertex="1" parent="FLbDrOzy0SRXT8C7Cxbx-47">
          <mxGeometry y="120" width="140" height="30" as="geometry" />
        </mxCell>
        <mxCell id="FLbDrOzy0SRXT8C7Cxbx-52" value="Payment_Type" style="swimlane;fontStyle=1;childLayout=stackLayout;horizontal=1;startSize=30;horizontalStack=0;resizeParent=1;resizeParentMax=0;resizeLast=0;collapsible=1;marginBottom=0;whiteSpace=wrap;html=1;strokeWidth=2;fontSize=13;" vertex="1" parent="1">
          <mxGeometry x="330" y="-140" width="140" height="90" as="geometry" />
        </mxCell>
        <mxCell id="FLbDrOzy0SRXT8C7Cxbx-53" value="pay_type_id {PK}" style="text;strokeColor=none;fillColor=none;align=left;verticalAlign=middle;spacingLeft=4;spacingRight=4;overflow=hidden;points=[[0,0.5],[1,0.5]];portConstraint=eastwest;rotatable=0;whiteSpace=wrap;html=1;fontStyle=1" vertex="1" parent="FLbDrOzy0SRXT8C7Cxbx-52">
          <mxGeometry y="30" width="140" height="30" as="geometry" />
        </mxCell>
        <mxCell id="FLbDrOzy0SRXT8C7Cxbx-54" value="payment_method" style="text;strokeColor=none;fillColor=none;align=left;verticalAlign=middle;spacingLeft=4;spacingRight=4;overflow=hidden;points=[[0,0.5],[1,0.5]];portConstraint=eastwest;rotatable=0;whiteSpace=wrap;html=1;fontStyle=1" vertex="1" parent="FLbDrOzy0SRXT8C7Cxbx-52">
          <mxGeometry y="60" width="140" height="30" as="geometry" />
        </mxCell>
        <mxCell id="FLbDrOzy0SRXT8C7Cxbx-55" value="" style="endArrow=none;html=1;rounded=0;entryX=0.288;entryY=1.027;entryDx=0;entryDy=0;entryPerimeter=0;strokeWidth=2;exitX=0.719;exitY=-0.002;exitDx=0;exitDy=0;exitPerimeter=0;" edge="1" parent="1" source="FLbDrOzy0SRXT8C7Cxbx-31" target="FLbDrOzy0SRXT8C7Cxbx-15">
          <mxGeometry width="50" height="50" relative="1" as="geometry">
            <mxPoint x="160" y="-480" as="sourcePoint" />
            <mxPoint x="160" y="-620" as="targetPoint" />
          </mxGeometry>
        </mxCell>
        <mxCell id="FLbDrOzy0SRXT8C7Cxbx-56" value="" style="endArrow=none;html=1;rounded=0;strokeWidth=2;exitX=1;exitY=0.5;exitDx=0;exitDy=0;" edge="1" parent="1">
          <mxGeometry width="50" height="50" relative="1" as="geometry">
            <mxPoint x="470" y="-300" as="sourcePoint" />
            <mxPoint x="610" y="-299" as="targetPoint" />
          </mxGeometry>
        </mxCell>
        <mxCell id="FLbDrOzy0SRXT8C7Cxbx-57" value="" style="endArrow=none;html=1;rounded=0;strokeWidth=2;exitX=1;exitY=0.5;exitDx=0;exitDy=0;" edge="1" parent="1">
          <mxGeometry width="50" height="50" relative="1" as="geometry">
            <mxPoint x="200" y="-300" as="sourcePoint" />
            <mxPoint x="330" y="-299" as="targetPoint" />
          </mxGeometry>
        </mxCell>
        <mxCell id="FLbDrOzy0SRXT8C7Cxbx-58" value="" style="endArrow=none;html=1;rounded=0;strokeWidth=2;entryX=-0.008;entryY=0.015;entryDx=0;entryDy=0;entryPerimeter=0;" edge="1" parent="1" target="FLbDrOzy0SRXT8C7Cxbx-25">
          <mxGeometry width="50" height="50" relative="1" as="geometry">
            <mxPoint x="260" y="-680" as="sourcePoint" />
            <mxPoint x="530" y="-670" as="targetPoint" />
          </mxGeometry>
        </mxCell>
        <mxCell id="FLbDrOzy0SRXT8C7Cxbx-59" value="" style="endArrow=none;html=1;rounded=0;strokeWidth=2;entryX=-0.008;entryY=0.714;entryDx=0;entryDy=0;entryPerimeter=0;" edge="1" parent="1">
          <mxGeometry width="50" height="50" relative="1" as="geometry">
            <mxPoint x="200" y="-432" as="sourcePoint" />
            <mxPoint x="610" y="-429" as="targetPoint" />
          </mxGeometry>
        </mxCell>
        <mxCell id="FLbDrOzy0SRXT8C7Cxbx-60" value="" style="endArrow=none;html=1;rounded=0;strokeWidth=2;exitX=0.719;exitY=-0.002;exitDx=0;exitDy=0;exitPerimeter=0;" edge="1" parent="1">
          <mxGeometry width="50" height="50" relative="1" as="geometry">
            <mxPoint x="400.44" y="-141" as="sourcePoint" />
            <mxPoint x="399.44" y="-250" as="targetPoint" />
          </mxGeometry>
        </mxCell>
        <mxCell id="FLbDrOzy0SRXT8C7Cxbx-61" value="{Optional, OR}" style="text;html=1;strokeColor=none;fillColor=none;align=center;verticalAlign=middle;whiteSpace=wrap;rounded=0;fontStyle=1;fontSize=13;" vertex="1" parent="1">
          <mxGeometry x="31" y="-810" width="160" height="50" as="geometry" />
        </mxCell>
        <mxCell id="FLbDrOzy0SRXT8C7Cxbx-62" value="[1..*]" style="text;html=1;strokeColor=none;fillColor=none;align=center;verticalAlign=middle;whiteSpace=wrap;rounded=0;fontStyle=1;fontSize=13;" vertex="1" parent="1">
          <mxGeometry x="530" y="-710" width="60" height="30" as="geometry" />
        </mxCell>
        <mxCell id="FLbDrOzy0SRXT8C7Cxbx-63" value="[1..*]" style="text;html=1;strokeColor=none;fillColor=none;align=center;verticalAlign=middle;whiteSpace=wrap;rounded=0;fontStyle=1;fontSize=13;" vertex="1" parent="1">
          <mxGeometry x="260" y="-710" width="60" height="30" as="geometry" />
        </mxCell>
        <mxCell id="FLbDrOzy0SRXT8C7Cxbx-64" value="supplies" style="text;html=1;strokeColor=none;fillColor=none;align=center;verticalAlign=middle;whiteSpace=wrap;rounded=0;fontSize=13;fontStyle=1" vertex="1" parent="1">
          <mxGeometry x="410" y="-710" width="60" height="30" as="geometry" />
        </mxCell>
        <mxCell id="FLbDrOzy0SRXT8C7Cxbx-65" value="" style="triangle;whiteSpace=wrap;html=1;rotation=-180;strokeWidth=2;fillColor=#000000;" vertex="1" parent="1">
          <mxGeometry x="395" y="-700" width="10" height="10" as="geometry" />
        </mxCell>
        <mxCell id="FLbDrOzy0SRXT8C7Cxbx-66" value="places" style="text;html=1;strokeColor=none;fillColor=none;align=center;verticalAlign=middle;whiteSpace=wrap;rounded=0;fontSize=13;fontStyle=1" vertex="1" parent="1">
          <mxGeometry x="370" y="-460" width="60" height="30" as="geometry" />
        </mxCell>
        <mxCell id="FLbDrOzy0SRXT8C7Cxbx-67" value="" style="triangle;whiteSpace=wrap;html=1;rotation=-180;strokeWidth=2;fillColor=#000000;" vertex="1" parent="1">
          <mxGeometry x="360" y="-450" width="10" height="10" as="geometry" />
        </mxCell>
        <mxCell id="FLbDrOzy0SRXT8C7Cxbx-68" value="" style="triangle;whiteSpace=wrap;html=1;rotation=-180;strokeWidth=2;fillColor=#000000;direction=north;" vertex="1" parent="1">
          <mxGeometry x="170" y="-555" width="10" height="10" as="geometry" />
        </mxCell>
        <mxCell id="FLbDrOzy0SRXT8C7Cxbx-69" value="has" style="text;html=1;strokeColor=none;fillColor=none;align=center;verticalAlign=middle;whiteSpace=wrap;rounded=0;fontSize=13;fontStyle=1" vertex="1" parent="1">
          <mxGeometry x="170" y="-565" width="60" height="30" as="geometry" />
        </mxCell>
        <mxCell id="FLbDrOzy0SRXT8C7Cxbx-70" value="" style="triangle;whiteSpace=wrap;html=1;rotation=-180;strokeWidth=2;fillColor=#000000;direction=west;" vertex="1" parent="1">
          <mxGeometry x="285" y="-320" width="10" height="10" as="geometry" />
        </mxCell>
        <mxCell id="FLbDrOzy0SRXT8C7Cxbx-71" value="has" style="text;html=1;strokeColor=none;fillColor=none;align=center;verticalAlign=middle;whiteSpace=wrap;rounded=0;fontSize=13;fontStyle=1" vertex="1" parent="1">
          <mxGeometry x="230" y="-330" width="60" height="30" as="geometry" />
        </mxCell>
        <mxCell id="FLbDrOzy0SRXT8C7Cxbx-72" value="makes" style="text;html=1;strokeColor=none;fillColor=none;align=center;verticalAlign=middle;whiteSpace=wrap;rounded=0;fontSize=13;fontStyle=1" vertex="1" parent="1">
          <mxGeometry x="520" y="-330" width="60" height="30" as="geometry" />
        </mxCell>
        <mxCell id="FLbDrOzy0SRXT8C7Cxbx-73" value="" style="triangle;whiteSpace=wrap;html=1;rotation=-180;strokeWidth=2;fillColor=#000000;" vertex="1" parent="1">
          <mxGeometry x="510" y="-320" width="10" height="10" as="geometry" />
        </mxCell>
        <mxCell id="FLbDrOzy0SRXT8C7Cxbx-74" value="" style="triangle;whiteSpace=wrap;html=1;rotation=-180;strokeWidth=2;fillColor=#000000;direction=north;" vertex="1" parent="1">
          <mxGeometry x="410" y="-200" width="10" height="10" as="geometry" />
        </mxCell>
        <mxCell id="FLbDrOzy0SRXT8C7Cxbx-75" value="consists" style="text;html=1;strokeColor=none;fillColor=none;align=center;verticalAlign=middle;whiteSpace=wrap;rounded=0;fontSize=13;fontStyle=1" vertex="1" parent="1">
          <mxGeometry x="420" y="-210" width="60" height="30" as="geometry" />
        </mxCell>
        <mxCell id="FLbDrOzy0SRXT8C7Cxbx-76" value="[1..*]" style="text;html=1;strokeColor=none;fillColor=none;align=center;verticalAlign=middle;whiteSpace=wrap;rounded=0;fontStyle=1;fontSize=13;" vertex="1" parent="1">
          <mxGeometry x="100" y="-630" width="60" height="30" as="geometry" />
        </mxCell>
        <mxCell id="FLbDrOzy0SRXT8C7Cxbx-77" value="[1..*]" style="text;html=1;strokeColor=none;fillColor=none;align=center;verticalAlign=middle;whiteSpace=wrap;rounded=0;fontStyle=1;fontSize=13;" vertex="1" parent="1">
          <mxGeometry x="100" y="-500" width="60" height="30" as="geometry" />
        </mxCell>
        <mxCell id="FLbDrOzy0SRXT8C7Cxbx-78" value="[1..*]" style="text;html=1;strokeColor=none;fillColor=none;align=center;verticalAlign=middle;whiteSpace=wrap;rounded=0;fontStyle=1;fontSize=13;" vertex="1" parent="1">
          <mxGeometry x="200" y="-460" width="60" height="30" as="geometry" />
        </mxCell>
        <mxCell id="FLbDrOzy0SRXT8C7Cxbx-79" value="[1..1]" style="text;html=1;strokeColor=none;fillColor=none;align=center;verticalAlign=middle;whiteSpace=wrap;rounded=0;fontStyle=1;fontSize=13;" vertex="1" parent="1">
          <mxGeometry x="550" y="-460" width="60" height="30" as="geometry" />
        </mxCell>
        <mxCell id="FLbDrOzy0SRXT8C7Cxbx-80" value="[1..*]" style="text;html=1;strokeColor=none;fillColor=none;align=center;verticalAlign=middle;whiteSpace=wrap;rounded=0;fontStyle=1;fontSize=13;" vertex="1" parent="1">
          <mxGeometry x="200" y="-300" width="60" height="30" as="geometry" />
        </mxCell>
        <mxCell id="FLbDrOzy0SRXT8C7Cxbx-81" value="[1..1]" style="text;html=1;strokeColor=none;fillColor=none;align=center;verticalAlign=middle;whiteSpace=wrap;rounded=0;fontStyle=1;fontSize=13;" vertex="1" parent="1">
          <mxGeometry x="270" y="-300" width="60" height="30" as="geometry" />
        </mxCell>
        <mxCell id="FLbDrOzy0SRXT8C7Cxbx-82" value="[1..*]" style="text;html=1;strokeColor=none;fillColor=none;align=center;verticalAlign=middle;whiteSpace=wrap;rounded=0;fontStyle=1;fontSize=13;" vertex="1" parent="1">
          <mxGeometry x="470" y="-300" width="60" height="30" as="geometry" />
        </mxCell>
        <mxCell id="FLbDrOzy0SRXT8C7Cxbx-83" value="[1..1]" style="text;html=1;strokeColor=none;fillColor=none;align=center;verticalAlign=middle;whiteSpace=wrap;rounded=0;fontStyle=1;fontSize=13;" vertex="1" parent="1">
          <mxGeometry x="550" y="-300" width="60" height="30" as="geometry" />
        </mxCell>
        <mxCell id="FLbDrOzy0SRXT8C7Cxbx-84" value="[1..1]" style="text;html=1;strokeColor=none;fillColor=none;align=center;verticalAlign=middle;whiteSpace=wrap;rounded=0;fontStyle=1;fontSize=13;" vertex="1" parent="1">
          <mxGeometry x="340" y="-170" width="60" height="30" as="geometry" />
        </mxCell>
        <mxCell id="FLbDrOzy0SRXT8C7Cxbx-85" value="[1..*]" style="text;html=1;strokeColor=none;fillColor=none;align=center;verticalAlign=middle;whiteSpace=wrap;rounded=0;fontStyle=1;fontSize=13;" vertex="1" parent="1">
          <mxGeometry x="340" y="-250" width="60" height="30" as="geometry" />
        </mxCell>
        <mxCell id="FLbDrOzy0SRXT8C7Cxbx-86" value="Supplier_Type" style="swimlane;fontStyle=1;childLayout=stackLayout;horizontal=1;startSize=30;horizontalStack=0;resizeParent=1;resizeParentMax=0;resizeLast=0;collapsible=1;marginBottom=0;whiteSpace=wrap;html=1;strokeWidth=2;fontSize=13;" vertex="1" parent="1">
          <mxGeometry x="590" y="-1080" width="140" height="90" as="geometry" />
        </mxCell>
        <mxCell id="FLbDrOzy0SRXT8C7Cxbx-87" value="sup_type_id {PK}" style="text;strokeColor=none;fillColor=none;align=left;verticalAlign=middle;spacingLeft=4;spacingRight=4;overflow=hidden;points=[[0,0.5],[1,0.5]];portConstraint=eastwest;rotatable=0;whiteSpace=wrap;html=1;fontStyle=1" vertex="1" parent="FLbDrOzy0SRXT8C7Cxbx-86">
          <mxGeometry y="30" width="140" height="30" as="geometry" />
        </mxCell>
        <mxCell id="FLbDrOzy0SRXT8C7Cxbx-88" value="sup_type" style="text;strokeColor=none;fillColor=none;align=left;verticalAlign=middle;spacingLeft=4;spacingRight=4;overflow=hidden;points=[[0,0.5],[1,0.5]];portConstraint=eastwest;rotatable=0;whiteSpace=wrap;html=1;fontStyle=1" vertex="1" parent="FLbDrOzy0SRXT8C7Cxbx-86">
          <mxGeometry y="60" width="140" height="30" as="geometry" />
        </mxCell>
        <mxCell id="FLbDrOzy0SRXT8C7Cxbx-89" value="[1..*]" style="text;html=1;strokeColor=none;fillColor=none;align=center;verticalAlign=middle;whiteSpace=wrap;rounded=0;fontStyle=1;fontSize=13;" vertex="1" parent="1">
          <mxGeometry x="600" y="-890" width="60" height="30" as="geometry" />
        </mxCell>
        <mxCell id="FLbDrOzy0SRXT8C7Cxbx-90" value="[1..1]" style="text;html=1;strokeColor=none;fillColor=none;align=center;verticalAlign=middle;whiteSpace=wrap;rounded=0;fontStyle=1;fontSize=13;" vertex="1" parent="1">
          <mxGeometry x="600" y="-990" width="60" height="30" as="geometry" />
        </mxCell>
        <mxCell id="FLbDrOzy0SRXT8C7Cxbx-91" value="has" style="text;html=1;strokeColor=none;fillColor=none;align=center;verticalAlign=middle;whiteSpace=wrap;rounded=0;fontSize=13;fontStyle=1" vertex="1" parent="1">
          <mxGeometry x="680" y="-950" width="60" height="30" as="geometry" />
        </mxCell>
        <mxCell id="FLbDrOzy0SRXT8C7Cxbx-92" value="" style="triangle;whiteSpace=wrap;html=1;rotation=-180;strokeWidth=2;fillColor=#000000;direction=south;" vertex="1" parent="1">
          <mxGeometry x="680" y="-940" width="10" height="10" as="geometry" />
        </mxCell>
      </root>
    </mxGraphModel>
  </diagram>
</mxfile>
